<mxfile host="app.diagrams.net" modified="2024-03-01T14:30:16.866Z" agent="Mozilla/5.0 (X11; Linux x86_64; rv:109.0) Gecko/20100101 Firefox/115.0" version="24.0.0" etag="V9gtVyXla4LoQO5xa08m" type="github">
  <diagram name="Page-1" id="MUlbAWOHpuI2E0oenqgP">
    <mxGraphModel>
      <root>
        <mxCell id="0" />
        <mxCell id="1" parent="0" />
      </root>
    </mxGraphModel>
  </diagram>
</mxfile>
